<?xml version="1.0" encoding="UTF-8" standalone="no"?>
<!DOCTYPE svg PUBLIC "-//W3C//DTD SVG 1.1//EN"
 "http://www.w3.org/Graphics/SVG/1.1/DTD/svg11.dtd">
<!-- Generated by graphviz version 2.40.1 (20161225.0304)
 -->
<!-- Title: FCM Pages: 1 -->
<svg width="243pt" height="235pt"
 viewBox="0.00 0.00 243.39 234.72" xmlns="http://www.w3.org/2000/svg" xmlns:xlink="http://www.w3.org/1999/xlink">
<g id="graph0" class="graph" transform="scale(1 1) rotate(0) translate(4 230.7203)">
<title>FCM</title>
<polygon fill="#ffffff" stroke="transparent" points="-4,4 -4,-230.7203 239.3858,-230.7203 239.3858,4 -4,4"/>
<!-- c1 -->
<g id="node1" class="node">
<title>c1</title>
<ellipse fill="none" stroke="#000000" cx="139.1026" cy="-18" rx="27" ry="18"/>
<text text-anchor="start" x="130.6026" y="-15.3" font-family="Times,serif" font-size="14.00" fill="#000000">C</text>
<text text-anchor="start" x="140.6026" y="-15.3" font-family="Times,serif" baseline-shift="sub" font-size="14.00" fill="#000000">1</text>
</g>
<!-- c2 -->
<g id="node2" class="node">
<title>c2</title>
<ellipse fill="none" stroke="#000000" cx="139.1026" cy="-208.7203" rx="27" ry="18"/>
<text text-anchor="start" x="130.6026" y="-206.0203" font-family="Times,serif" font-size="14.00" fill="#000000">C</text>
<text text-anchor="start" x="140.6026" y="-206.0203" font-family="Times,serif" baseline-shift="sub" font-size="14.00" fill="#000000">2</text>
</g>
<!-- c1&#45;&gt;c2 -->
<g id="edge1" class="edge">
<title>c1&#45;&gt;c2</title>
<path fill="none" stroke="#000000" d="M139.1026,-36.2871C139.1026,-69.6799 139.1026,-140.734 139.1026,-180.4178"/>
<polygon fill="#000000" stroke="#000000" points="135.6027,-180.4886 139.1026,-190.4886 142.6027,-180.4887 135.6027,-180.4886"/>
<text text-anchor="middle" x="130.1026" y="-112.1524" font-family="Times,serif" font-size="14.00" fill="#000000">0.5</text>
</g>
<!-- c3 -->
<g id="node3" class="node">
<title>c3</title>
<ellipse fill="none" stroke="#000000" cx="27" cy="-172.296" rx="27" ry="18"/>
<text text-anchor="start" x="18.5" y="-169.596" font-family="Times,serif" font-size="14.00" fill="#000000">C</text>
<text text-anchor="start" x="28.5" y="-169.596" font-family="Times,serif" baseline-shift="sub" font-size="14.00" fill="#000000">3</text>
</g>
<!-- c1&#45;&gt;c3 -->
<g id="edge2" class="edge">
<title>c1&#45;&gt;c3</title>
<path fill="none" stroke="#000000" d="M127.3175,-34.2207C107.689,-61.2372 68.176,-115.6221 45.0291,-147.4811"/>
<polygon fill="#000000" stroke="#000000" points="42.0109,-145.6807 38.9646,-155.8282 47.674,-149.7953 42.0109,-145.6807"/>
<text text-anchor="middle" x="77.1733" y="-94.6509" font-family="Times,serif" font-size="14.00" fill="#000000">0.3</text>
</g>
<!-- c4 -->
<g id="node4" class="node">
<title>c4</title>
<ellipse fill="none" stroke="#000000" cx="208.3858" cy="-113.3602" rx="27" ry="18"/>
<text text-anchor="start" x="199.8858" y="-110.6602" font-family="Times,serif" font-size="14.00" fill="#000000">C</text>
<text text-anchor="start" x="209.8858" y="-110.6602" font-family="Times,serif" baseline-shift="sub" font-size="14.00" fill="#000000">4</text>
</g>
<!-- c2&#45;&gt;c4 -->
<g id="edge3" class="edge">
<title>c2&#45;&gt;c4</title>
<path fill="none" stroke="#000000" d="M151.1708,-192.1099C161.9997,-177.2052 178.0411,-155.1261 190.385,-138.1361"/>
<polygon fill="#000000" stroke="#000000" points="193.4096,-139.9277 196.4559,-129.7803 187.7464,-135.8132 193.4096,-139.9277"/>
<text text-anchor="middle" x="159.7779" y="-168.923" font-family="Times,serif" font-size="14.00" fill="#000000">&#45;0.1</text>
</g>
<!-- c5 -->
<g id="node5" class="node">
<title>c5</title>
<ellipse fill="none" stroke="#000000" cx="27" cy="-54.4243" rx="27" ry="18"/>
<text text-anchor="start" x="18.5" y="-51.7243" font-family="Times,serif" font-size="14.00" fill="#000000">C</text>
<text text-anchor="start" x="28.5" y="-51.7243" font-family="Times,serif" baseline-shift="sub" font-size="14.00" fill="#000000">5</text>
</g>
<!-- c2&#45;&gt;c5 -->
<g id="edge4" class="edge">
<title>c2&#45;&gt;c5</title>
<path fill="none" stroke="#000000" d="M127.3175,-192.4996C107.689,-165.4832 68.176,-111.0982 45.0291,-79.2392"/>
<polygon fill="#000000" stroke="#000000" points="47.674,-76.9251 38.9646,-70.8922 42.0109,-81.0396 47.674,-76.9251"/>
<text text-anchor="middle" x="73.6733" y="-139.6694" font-family="Times,serif" font-size="14.00" fill="#000000">0.35</text>
</g>
<!-- c3&#45;&gt;c2 -->
<g id="edge5" class="edge">
<title>c3&#45;&gt;c2</title>
<path fill="none" stroke="#000000" d="M51.3246,-180.1995C67.043,-185.3068 87.7248,-192.0267 105.0649,-197.6608"/>
<polygon fill="#000000" stroke="#000000" points="104.2333,-201.0707 114.8255,-200.8322 106.3965,-194.4133 104.2333,-201.0707"/>
<text text-anchor="middle" x="67.1947" y="-192.7302" font-family="Times,serif" font-size="14.00" fill="#000000">&#45;0.1</text>
</g>
<!-- c3&#45;&gt;c4 -->
<g id="edge6" class="edge">
<title>c3&#45;&gt;c4</title>
<path fill="none" stroke="#000000" d="M51.4625,-164.3476C83.1946,-154.0373 138.7112,-135.9988 174.49,-124.3736"/>
<polygon fill="#000000" stroke="#000000" points="175.5929,-127.6954 184.0219,-121.2765 173.4298,-121.038 175.5929,-127.6954"/>
<text text-anchor="middle" x="101.9763" y="-148.1606" font-family="Times,serif" font-size="14.00" fill="#000000">&#45;0.2</text>
</g>
<!-- c3&#45;&gt;c5 -->
<g id="edge7" class="edge">
<title>c3&#45;&gt;c5</title>
<path fill="none" stroke="#000000" d="M27,-154.1369C27,-135.157 27,-105.1104 27,-82.9567"/>
<polygon fill="#000000" stroke="#000000" points="30.5001,-82.7983 27,-72.7983 23.5001,-82.7983 30.5001,-82.7983"/>
<text text-anchor="middle" x="18" y="-122.3468" font-family="Times,serif" font-size="14.00" fill="#000000">0.4</text>
</g>
<!-- c4&#45;&gt;c1 -->
<g id="edge8" class="edge">
<title>c4&#45;&gt;c1</title>
<path fill="none" stroke="#000000" d="M196.3176,-96.7497C185.4887,-81.845 169.4474,-59.766 157.1034,-42.776"/>
<polygon fill="#000000" stroke="#000000" points="159.742,-40.4531 151.0325,-34.4201 154.0788,-44.5676 159.742,-40.4531"/>
<text text-anchor="middle" x="167.7105" y="-73.5628" font-family="Times,serif" font-size="14.00" fill="#000000">0.4</text>
</g>
<!-- c5&#45;&gt;c1 -->
<g id="edge9" class="edge">
<title>c5&#45;&gt;c1</title>
<path fill="none" stroke="#000000" d="M51.3246,-46.5208C67.043,-41.4136 87.7248,-34.6937 105.0649,-29.0595"/>
<polygon fill="#000000" stroke="#000000" points="106.3965,-32.3071 114.8255,-25.8881 104.2333,-25.6497 106.3965,-32.3071"/>
<text text-anchor="middle" x="67.1947" y="-41.5902" font-family="Times,serif" font-size="14.00" fill="#000000">&#45;0.7</text>
</g>
</g>
</svg>
